<?xml version="1.0" encoding="UTF-8"?><svg id="Layer_1" xmlns="http://www.w3.org/2000/svg" width="386.537435" height="296.583869" xmlns:xlink="http://www.w3.org/1999/xlink" viewBox="0 0 386.537435 296.583869"><defs><linearGradient id="linear-gradient" x1="1.275433" y1="181.982857" x2="53.913833" y2="181.982857" gradientUnits="userSpaceOnUse"><stop offset="0" stop-color="#cfe7f2" stop-opacity=".4"/><stop offset="0" stop-color="#e4f5fd" stop-opacity=".403631"/><stop offset="1" stop-color="#d2dce8" stop-opacity=".4"/></linearGradient><linearGradient id="linear-gradient-2" x1="44.095603" y1="253.486544" x2="385.965339" y2="253.486544" xlink:href="#linear-gradient"/><linearGradient id="linear-gradient-3" x1="10.751791" y1="139.536963" x2="385.947435" y2="139.536963" xlink:href="#linear-gradient"/></defs><polyline points="44.198175 295.722758 30.120714 226.874361 8.467678 120.950466 1.275433 85.753092 10.991091 68.242956 18.183336 103.440331 39.836372 209.364225 53.913833 278.212622" fill="url(#linear-gradient)"/><polygon points="376.249681 228.581155 385.965339 211.071019 385.865339 210.979035 345.99023 219.134668 54.182364 278.782682 53.592437 278.903041 53.811261 278.483916 44.095603 295.994052 376.249681 228.581155" fill="url(#linear-gradient-2)"/><polyline points="376.707919 227.98217 336.356668 236.225678 44.548802 295.873693 43.958875 295.994052 29.881414 227.145654 8.228378 121.22176 .936024 85.545896" fill="none" stroke="#231f20" stroke-miterlimit="10"/><polygon points="343.024624 .59001 385.947435 210.55991 346.072326 218.715542 54.26446 278.363557 53.674533 278.483916 39.597072 209.635519 17.944036 103.711624 10.751791 68.51425 343.024624 .59001" fill="url(#linear-gradient-3)" stroke="#231f20" stroke-miterlimit="10"/><line x1="10.597339" y1="68.378807" x2=".881681" y2="85.888943" fill="none" stroke="#231f20" stroke-miterlimit="10"/><line x1="53.893358" y1="278.064791" x2="44.1777" y2="295.574926" fill="none" stroke="#231f20" stroke-miterlimit="10"/><line x1="386.088306" y1="210.711608" x2="376.372648" y2="228.221744" fill="none" stroke="#231f20" stroke-miterlimit="10"/><path d="M125.963564,113.811012c-.609985,15.179932-9.719971,29.399902-24.609985,35.809937-19.440002,8.359985-41.789978.410034-51.769958-17.76001-.640015-1.150024-1.220032-2.339966-1.75-3.569946-.140015-.320068-.27002-.640015-.400024-.969971-.440002-1.080078-.830017-2.190063-1.160034-3.290039-5.97998-19.590088,3.620056-40.97998,22.880005-49.26001,20.670044-8.880005,44.640015.669922,53.530029,21.319946,1.369995,3.190063,2.309998,6.460083,2.830017,9.75.149963.940063.269958,1.869995.339966,2.810059.150024,1.72998.190002,3.449951.109985,5.160034Z" fill="#fff" stroke="#231f20" stroke-miterlimit="10"/><path d="M125.963564,113.811012c-.609985,15.179932-9.719971,29.399902-24.609985,35.809937-19.440002,8.359985-41.789978.410034-51.769958-17.76001.599976-15.180054,9.719971-29.410034,24.599976-35.799927,19.440002-8.360107,41.799988-.410034,51.779968,17.75Z" fill="none" stroke="#231f20" stroke-miterlimit="10"/><circle cx="85.255881" cy="112.198394" r="43.059491" fill="none" stroke="#231f20" stroke-miterlimit="10" stroke-width="1.056915"/><path d="M152.630231,212.591654c-.609985,15.179932-9.719971,29.399902-24.609985,35.809937-19.440002,8.359985-41.789978.410034-51.769958-17.76001-.640015-1.150024-1.220032-2.339966-1.75-3.569946-.140015-.320068-.27002-.640015-.400024-.969971-.440002-1.080078-.830017-2.190063-1.160034-3.290039-5.97998-19.590088,3.620056-40.97998,22.880005-49.26001,20.670044-8.880005,44.640015.669922,53.530029,21.319946,1.369995,3.190063,2.309998,6.460083,2.830017,9.75.149963.940063.269958,1.869995.339966,2.810059.150024,1.72998.190002,3.449951.109985,5.160034Z" fill="#fff" stroke="#231f20" stroke-miterlimit="10"/><path d="M152.630231,212.591654c-.609985,15.179932-9.719971,29.399902-24.609985,35.809937-19.440002,8.359985-41.789978.410034-51.769958-17.76001.599976-15.180054,9.719971-29.410034,24.599976-35.799927,19.440002-8.360107,41.799988-.410034,51.779968,17.75Z" fill="none" stroke="#231f20" stroke-miterlimit="10"/><circle cx="111.922548" cy="210.979035" r="43.059491" fill="none" stroke="#231f20" stroke-miterlimit="10" stroke-width="1.056915"/><path d="M325.484362,69.707509c-.609985,15.179932-9.719971,29.399902-24.609985,35.809937-19.440002,8.359985-41.789978.410034-51.769958-17.76001-.640015-1.150024-1.220032-2.339966-1.75-3.569946-.140015-.320068-.27002-.640015-.400024-.969971-.440002-1.080078-.830017-2.190063-1.160034-3.290039-5.97998-19.590088,3.620056-40.97998,22.880005-49.26001,20.670044-8.880005,44.640015.669922,53.530029,21.319946,1.369995,3.190063,2.309998,6.460083,2.830017,9.75.149963.940063.269958,1.869995.339966,2.810059.150024,1.72998.190002,3.449951.109985,5.160034Z" fill="#fff" stroke="#231f20" stroke-miterlimit="10"/><path d="M325.484362,69.707509c-.609985,15.179932-9.719971,29.399902-24.609985,35.809937-19.440002,8.359985-41.789978.410034-51.769958-17.76001.599976-15.180054,9.719971-29.410034,24.599976-35.799927,19.440002-8.360107,41.799988-.410034,51.779968,17.75Z" fill="none" stroke="#231f20" stroke-miterlimit="10"/><circle cx="284.776678" cy="68.09489" r="43.059491" fill="none" stroke="#231f20" stroke-miterlimit="10" stroke-width="1.056915"/><path d="M352.151028,168.48815c-.609985,15.179932-9.719971,29.399902-24.609985,35.809937-19.440002,8.359985-41.789978.410034-51.769958-17.76001-.640015-1.150024-1.220032-2.339966-1.75-3.569946-.140015-.320068-.27002-.640015-.400024-.969971-.440002-1.080078-.830017-2.190063-1.160034-3.290039-5.97998-19.590088,3.620056-40.97998,22.880005-49.26001,20.670044-8.880005,44.640015.669922,53.530029,21.319946,1.369995,3.190063,2.309998,6.460083,2.830017,9.75.149963.940063.269958,1.869995.339966,2.810059.150024,1.72998.190002,3.449951.109985,5.160034Z" fill="#fff" stroke="#231f20" stroke-miterlimit="10"/><path d="M352.151028,168.48815c-.609985,15.179932-9.719971,29.399902-24.609985,35.809937-19.440002,8.359985-41.789978.410034-51.769958-17.76001.599976-15.180054,9.719971-29.410034,24.599976-35.799927,19.440002-8.360107,41.799988-.410034,51.779968,17.75Z" fill="none" stroke="#231f20" stroke-miterlimit="10"/><circle cx="311.443345" cy="166.875532" r="43.059491" fill="none" stroke="#231f20" stroke-miterlimit="10" stroke-width="1.056915"/><path d="M225.723963,91.75926c-.609985,15.179932-9.719971,29.399902-24.609985,35.809937-19.440002,8.359985-41.789978.410034-51.769958-17.76001-.640015-1.150024-1.220032-2.339966-1.75-3.569946-.140015-.320068-.27002-.640015-.400024-.969971-.440002-1.080078-.830017-2.190063-1.160034-3.290039-5.97998-19.590088,3.620056-40.97998,22.880005-49.26001,20.670044-8.880005,44.640015.669922,53.530029,21.319946,1.369995,3.190063,2.309998,6.460083,2.830017,9.75.149963.940063.269958,1.869995.339966,2.810059.150024,1.72998.190002,3.449951.109985,5.160034Z" fill="#fff" stroke="#231f20" stroke-miterlimit="10"/><path d="M225.723963,91.75926c-.609985,15.179932-9.719971,29.399902-24.609985,35.809937-19.440002,8.359985-41.789978.410034-51.769958-17.76001.599976-15.180054,9.719971-29.410034,24.599976-35.799927,19.440002-8.360107,41.799988-.410034,51.779968,17.75Z" fill="none" stroke="#231f20" stroke-miterlimit="10"/><circle cx="185.01628" cy="90.146642" r="43.059491" fill="none" stroke="#231f20" stroke-miterlimit="10" stroke-width="1.056915"/><path d="M252.39063,190.539902c-.609985,15.179932-9.719971,29.399902-24.609985,35.809937-19.440002,8.359985-41.789978.410034-51.769958-17.76001-.640015-1.150024-1.220032-2.339966-1.75-3.569946-.140015-.320068-.27002-.640015-.400024-.969971-.440002-1.080078-.830017-2.190063-1.160034-3.290039-5.97998-19.590088,3.620056-40.97998,22.880005-49.26001,20.670044-8.880005,44.640015.669922,53.530029,21.319946,1.369995,3.190063,2.309998,6.460083,2.830017,9.75.149963.940063.269958,1.869995.339966,2.810059.150024,1.72998.190002,3.449951.109985,5.160034Z" fill="#fff" stroke="#231f20" stroke-miterlimit="10"/><path d="M252.39063,190.539902c-.609985,15.179932-9.719971,29.399902-24.609985,35.809937-19.440002,8.359985-41.789978.410034-51.769958-17.76001.599976-15.180054,9.719971-29.410034,24.599976-35.799927,19.440002-8.360107,41.799988-.410034,51.779968,17.75Z" fill="none" stroke="#231f20" stroke-miterlimit="10"/><circle cx="211.682946" cy="188.927284" r="43.059491" fill="none" stroke="#231f20" stroke-miterlimit="10" stroke-width="1.056915"/></svg>